<svg width="50" height="57" viewBox="0 0 50 57" fill="none" xmlns="http://www.w3.org/2000/svg">
<g clip-path="url(#clip0)">
<path d="M48.4309 7.34109L42.6405 1.56516C41.6359 0.563013 40.2733 7.41085e-06 38.8525 0L19.6429 0C16.6842 0 14.2857 2.39244 14.2857 5.34375V10.6875H5.35714C2.39844 10.6875 0 13.0799 0 16.0312V51.6562C0 54.6076 2.39844 57 5.35714 57H30.3571C33.3158 57 35.7143 54.6076 35.7143 51.6562V46.3125H44.6429C47.6016 46.3125 50 43.9201 50 40.9688V11.1197C50 9.70243 49.4356 8.34323 48.4309 7.34109ZM29.6875 51.6562H6.02679C5.84919 51.6562 5.67886 51.5859 5.55328 51.4606C5.42769 51.3353 5.35714 51.1654 5.35714 50.9883V16.6992C5.35714 16.5221 5.42769 16.3522 5.55328 16.2269C5.67886 16.1016 5.84919 16.0312 6.02679 16.0312H14.2857V40.9688C14.2857 43.9201 16.6842 46.3125 19.6429 46.3125H30.3571V50.9883C30.3571 51.1654 30.2866 51.3353 30.161 51.4606C30.0354 51.5859 29.8651 51.6562 29.6875 51.6562ZM43.9732 40.9688H20.3125C20.1349 40.9688 19.9646 40.8984 19.839 40.7731C19.7134 40.6478 19.6429 40.4779 19.6429 40.3008V6.01172C19.6429 5.83456 19.7134 5.66466 19.839 5.53939C19.9646 5.41412 20.1349 5.34375 20.3125 5.34375H32.1429V15.1406C32.1429 16.6163 33.3421 17.8125 34.8214 17.8125H44.6429V40.3008C44.6429 40.4779 44.5723 40.6478 44.4467 40.7731C44.3211 40.8984 44.1508 40.9688 43.9732 40.9688V40.9688ZM44.6429 12.4688H37.5V5.34375H38.575C38.7526 5.34375 38.9229 5.41411 39.0485 5.53935L44.4468 10.9241C44.5089 10.9861 44.5583 11.0598 44.5919 11.1408C44.6256 11.2218 44.6429 11.3087 44.6429 11.3964V12.4688Z" fill="#171515" fill-opacity="0.56"/>
</g>
<defs>
<clipPath id="clip0">
<rect width="50" height="57" fill="white"/>
</clipPath>
</defs>
</svg>
