<svg width="50" height="57" viewBox="0 0 50 57" fill="none" xmlns="http://www.w3.org/2000/svg">
<path d="M43.75 21.375V8.6001C43.75 7.65492 43.4209 6.74982 42.835 6.08074L38.415 1.04314C37.8291 0.375176 37.0342 0 36.2051 0H9.375C7.64941 0 6.25 1.59533 6.25 3.5625V21.375C2.79785 21.375 0 24.5646 0 28.5V40.9688C0 41.9529 0.699219 42.75 1.5625 42.75H6.25V53.4375C6.25 55.4047 7.64941 57 9.375 57H40.625C42.3506 57 43.75 55.4047 43.75 53.4375V42.75H48.4375C49.3008 42.75 50 41.9529 50 40.9688V28.5C50 24.5646 47.2021 21.375 43.75 21.375ZM37.5 49.875H12.5V39.1875H37.5V49.875ZM37.5 24.9375H12.5V7.125H31.25V12.4688C31.25 13.4529 31.9492 14.25 32.8125 14.25H37.5V24.9375ZM42.1875 32.9531C40.8936 32.9531 39.8438 31.7563 39.8438 30.2812C39.8438 28.805 40.8936 27.6094 42.1875 27.6094C43.4814 27.6094 44.5312 28.805 44.5312 30.2812C44.5312 31.7563 43.4814 32.9531 42.1875 32.9531Z" fill="#171515" fill-opacity="0.56"/>
</svg>
